<svg width="151" height="150" viewBox="0 0 151 150" fill="none" xmlns="http://www.w3.org/2000/svg">
<g clip-path="url(#clip0_1_52)">
<path fill-rule="evenodd" clip-rule="evenodd" d="M76.6403 7.65789C76.6403 8.32645 76.5018 8.96264 76.252 9.53936L92.9656 22.3203C94.4069 20.7725 96.4626 19.8045 98.7444 19.8045C103.105 19.8045 106.639 23.3391 106.639 27.6992C106.639 28.8372 106.398 29.9189 105.965 30.8963L125.373 41.7419L140.792 28.173C140.62 27.6823 140.526 27.1547 140.526 26.6053C140.526 23.9892 142.647 21.8684 145.263 21.8684C147.879 21.8684 150 23.9892 150 26.6053C150 29.2213 147.879 31.3421 145.263 31.3421C144.06 31.3421 142.961 30.8934 142.126 30.1542L127.101 43.3758L143.687 67.2589C144.18 67.0849 144.71 66.9903 145.263 66.9903C147.879 66.9903 150 69.111 150 71.7271C150 74.3432 147.879 76.4639 145.263 76.4639C142.647 76.4639 140.526 74.3432 140.526 71.7271C140.526 70.5198 140.978 69.418 141.722 68.5815L124.71 44.0845L104.688 32.8957C103.39 34.3793 101.545 35.3725 99.4678 35.5612L98.1139 60.3828C101.679 61.7432 104.211 65.1943 104.211 69.2368C104.211 71.372 103.504 73.3422 102.312 74.9265L114.018 84.3809C114.807 83.7944 115.784 83.4474 116.842 83.4474C119.458 83.4474 121.579 85.5681 121.579 88.1842C121.579 90.8003 119.458 92.9211 116.842 92.9211C114.226 92.9211 112.105 90.8003 112.105 88.1842C112.105 87.4847 112.257 86.8205 112.529 86.2229L100.657 76.6336C99.035 77.9332 96.9767 78.7105 94.7368 78.7105C91.7849 78.7105 89.1482 77.3604 87.4108 75.2439L63.7377 81.6554C63.4383 84.2469 61.2365 86.2589 58.5648 86.2589C55.6887 86.2589 53.3572 83.9273 53.3572 81.0513C53.3572 80.5695 53.4226 80.103 53.5451 79.6601L39.0832 68.7042C37.3508 70.9489 34.6337 72.3947 31.5789 72.3947C30.1375 72.3947 28.7712 72.0728 27.5481 71.4969L18.8395 84.5598C19.871 85.4288 20.5263 86.7299 20.5263 88.1842C20.5263 90.8003 18.4056 92.9211 15.7895 92.9211C13.1734 92.9211 11.0526 90.8003 11.0526 88.1842C11.0526 85.5681 13.1734 83.4474 15.7895 83.4474C16.0935 83.4474 16.3909 83.476 16.6791 83.5308L25.548 70.2274C23.4453 68.4898 22.1053 65.8619 22.1053 62.9211C22.1053 61.6607 22.3514 60.4578 22.7982 59.3579L11.5333 54.5788C10.3959 56.2426 8.48337 57.3346 6.31579 57.3346C2.82767 57.3346 0 54.5069 0 51.0188C0 47.5307 2.82767 44.703 6.31579 44.703C9.80391 44.703 12.6316 47.5307 12.6316 51.0188C12.6316 51.4957 12.5787 51.9604 12.4785 52.4071L23.9665 57.2808C25.6928 54.9548 28.4598 53.4474 31.5789 53.4474C33.8143 53.4474 35.8689 54.2216 37.4891 55.5165L50.7399 42.6673C49.6198 41.3044 48.9474 39.5597 48.9474 37.6579C48.9474 36.3371 49.2717 35.092 49.8451 33.9981L30.7505 24.6728C29.3053 26.5154 27.0584 27.6992 24.5351 27.6992C20.1749 27.6992 16.6403 24.1646 16.6403 19.8045C16.6403 15.4443 20.1749 11.9097 24.5351 11.9097C28.8952 11.9097 32.4298 15.4443 32.4298 19.8045C32.4298 20.7915 32.2487 21.7362 31.9179 22.6071L51.2747 32.0605C52.7022 30.6406 54.6697 29.7632 56.8421 29.7632C57.9909 29.7632 59.0824 30.0085 60.067 30.4497L68.868 11.2945C67.8282 10.4256 67.1667 9.11898 67.1667 7.65789C67.1667 5.04181 69.2874 2.92105 71.9035 2.92105C74.5196 2.92105 76.6403 5.04181 76.6403 7.65789ZM63.4621 79.2763C62.7362 77.2741 60.8176 75.8437 58.5648 75.8437C57.0307 75.8437 55.6515 76.507 54.6984 77.5626L40.2913 66.6481C40.7813 65.5042 41.0526 64.2443 41.0526 62.9211C41.0526 60.7779 40.341 58.801 39.1411 57.2137L52.5045 44.2553C53.7493 45.0754 55.24 45.5526 56.8421 45.5526C59.3127 45.5526 61.5182 44.4178 62.9658 42.6409L86.6296 64.3327C85.7624 65.7633 85.2632 67.4418 85.2632 69.2368C85.2632 70.6299 85.5639 71.9528 86.1039 73.1441L63.4621 79.2763ZM71.9035 12.3947C71.5973 12.3947 71.2979 12.3657 71.0078 12.3102L62.0769 31.7481C63.7085 33.1944 64.7368 35.3061 64.7368 37.6579C64.7368 38.6789 64.543 39.6546 64.1902 40.5503L88.1046 62.4719C89.8135 60.7964 92.1545 59.7632 94.7368 59.7632C95.0869 59.7632 95.4325 59.7821 95.7727 59.8192L97.1034 35.4232C93.5308 34.6679 90.8497 31.4967 90.8497 27.6992C90.8497 26.4737 91.1289 25.3134 91.6272 24.2785L74.7972 11.4084C73.9968 12.0268 72.9931 12.3947 71.9035 12.3947Z" fill="url(#paint0_linear_1_52)"/>
<path d="M28.2947 139.433C26.2905 139.433 24.5369 138.991 23.0337 138.106C21.5305 137.222 20.3516 135.881 19.4969 134.083C18.6716 132.256 18.259 129.957 18.259 127.186C18.259 124.386 18.6569 122.087 19.4526 120.289C20.2484 118.492 21.3979 117.151 22.9011 116.266C24.4042 115.382 26.2021 114.94 28.2947 114.94C30.5348 114.94 32.539 115.456 34.3074 116.487C36.1053 117.489 37.52 118.904 38.5516 120.732C39.6126 122.559 40.1432 124.711 40.1432 127.186C40.1432 129.692 39.6126 131.858 38.5516 133.685C37.52 135.513 36.1053 136.927 34.3074 137.929C32.539 138.932 30.5348 139.433 28.2947 139.433ZM14.2358 147.656V115.294H20.8232V120.157L20.6905 127.231L21.1326 134.26V147.656H14.2358ZM27.1011 133.774C28.2505 133.774 29.2674 133.508 30.1516 132.978C31.0653 132.447 31.7874 131.696 32.3179 130.723C32.8779 129.721 33.1579 128.542 33.1579 127.186C33.1579 125.801 32.8779 124.622 32.3179 123.649C31.7874 122.677 31.0653 121.925 30.1516 121.395C29.2674 120.864 28.2505 120.599 27.1011 120.599C25.9516 120.599 24.92 120.864 24.0063 121.395C23.0926 121.925 22.3705 122.677 21.84 123.649C21.3095 124.622 21.0442 125.801 21.0442 127.186C21.0442 128.542 21.3095 129.721 21.84 130.723C22.3705 131.696 23.0926 132.447 24.0063 132.978C24.92 133.508 25.9516 133.774 27.1011 133.774ZM41.7199 139.079V134.437L53.6567 123.163C54.5999 122.308 55.2925 121.542 55.7346 120.864C56.1767 120.186 56.4715 119.567 56.6188 119.007C56.7957 118.447 56.8841 117.932 56.8841 117.46C56.8841 116.222 56.4567 115.279 55.602 114.631C54.7767 113.953 53.5536 113.614 51.9325 113.614C50.6357 113.614 49.4273 113.864 48.3073 114.365C47.2167 114.866 46.2883 115.647 45.522 116.708L40.3052 113.348C41.4841 111.58 43.1346 110.18 45.2567 109.148C47.3788 108.117 49.8252 107.601 52.5957 107.601C54.8946 107.601 56.8988 107.984 58.6083 108.751C60.3473 109.487 61.6883 110.534 62.6315 111.889C63.6041 113.245 64.0904 114.866 64.0904 116.753C64.0904 117.755 63.9578 118.757 63.6925 119.759C63.4567 120.732 62.9557 121.763 62.1894 122.854C61.4525 123.944 60.362 125.167 58.9178 126.523L49.0146 135.852L47.6441 133.243H65.1073V139.079H41.7199ZM82.6962 139.433C80.6919 139.433 78.9383 138.991 77.4351 138.106C75.9319 137.222 74.753 135.881 73.8983 134.083C73.073 132.256 72.6604 129.957 72.6604 127.186C72.6604 124.386 73.0583 122.087 73.854 120.289C74.6498 118.492 75.7993 117.151 77.3025 116.266C78.8056 115.382 80.6035 114.94 82.6962 114.94C84.9362 114.94 86.9404 115.456 88.7088 116.487C90.5067 117.489 91.9214 118.904 92.953 120.732C94.014 122.559 94.5446 124.711 94.5446 127.186C94.5446 129.692 94.014 131.858 92.953 133.685C91.9214 135.513 90.5067 136.927 88.7088 137.929C86.9404 138.932 84.9362 139.433 82.6962 139.433ZM68.6372 147.656V115.294H75.2246V120.157L75.0919 127.231L75.534 134.26V147.656H68.6372ZM81.5025 133.774C82.6519 133.774 83.6688 133.508 84.553 132.978C85.4667 132.447 86.1888 131.696 86.7193 130.723C87.2793 129.721 87.5593 128.542 87.5593 127.186C87.5593 125.801 87.2793 124.622 86.7193 123.649C86.1888 122.677 85.4667 121.925 84.553 121.395C83.6688 120.864 82.6519 120.599 81.5025 120.599C80.353 120.599 79.3214 120.864 78.4077 121.395C77.494 121.925 76.7719 122.677 76.2414 123.649C75.7109 124.622 75.4456 125.801 75.4456 127.186C75.4456 128.542 75.7109 129.721 76.2414 130.723C76.7719 131.696 77.494 132.447 78.4077 132.978C79.3214 133.508 80.353 133.774 81.5025 133.774ZM98.2773 139.079V115.294H104.865V122.014L103.936 120.068C104.644 118.388 105.778 117.121 107.34 116.266C108.903 115.382 110.804 114.94 113.044 114.94V121.306C112.749 121.277 112.484 121.262 112.248 121.262C112.012 121.233 111.761 121.218 111.496 121.218C109.61 121.218 108.077 121.763 106.898 122.854C105.749 123.915 105.174 125.58 105.174 127.849V139.079H98.2773ZM127.582 139.433C125.018 139.433 122.734 138.917 120.73 137.885C118.725 136.824 117.149 135.365 115.999 133.508C114.879 131.652 114.319 129.544 114.319 127.186C114.319 124.799 114.879 122.692 115.999 120.864C117.149 119.007 118.725 117.563 120.73 116.532C122.734 115.471 125.018 114.94 127.582 114.94C130.088 114.94 132.269 115.471 134.125 116.532C135.982 117.563 137.353 119.052 138.237 120.997L132.888 123.871C132.269 122.751 131.488 121.925 130.544 121.395C129.631 120.864 128.629 120.599 127.538 120.599C126.359 120.599 125.298 120.864 124.355 121.395C123.412 121.925 122.66 122.677 122.1 123.649C121.57 124.622 121.304 125.801 121.304 127.186C121.304 128.572 121.57 129.751 122.1 130.723C122.66 131.696 123.412 132.447 124.355 132.978C125.298 133.508 126.359 133.774 127.538 133.774C128.629 133.774 129.631 133.523 130.544 133.022C131.488 132.492 132.269 131.652 132.888 130.502L138.237 133.42C137.353 135.336 135.982 136.824 134.125 137.885C132.269 138.917 130.088 139.433 127.582 139.433Z" fill="url(#paint1_linear_1_52)"/>
</g>
<defs>
<linearGradient id="paint0_linear_1_52" x1="145.974" y1="17.9477" x2="-4.68153e-06" y2="62.4661" gradientUnits="userSpaceOnUse">
<stop stop-color="#FF593C"/>
<stop offset="1" stop-color="#FFBF57"/>
</linearGradient>
<linearGradient id="paint1_linear_1_52" x1="135.617" y1="105.095" x2="21.0253" y2="154.798" gradientUnits="userSpaceOnUse">
<stop stop-color="#FF593C"/>
<stop offset="1" stop-color="#FFBF57"/>
</linearGradient>
<clipPath id="clip0_1_52">
<rect width="150" height="150" fill="white" transform="translate(0.5)"/>
</clipPath>
</defs>
</svg>
